<svg version="1.1" xmlns="http://www.w3.org/2000/svg" viewBox="0 0 1241.9726751313792 1162.1048140942744" width="1241.9726751313792" height="1162.1048140942744" class="excalidraw-svg">
  <!-- svg-source:excalidraw -->
  
  <defs>
    <style class="style-fonts">
      
    </style>
    
  </defs>
  <g stroke-linecap="round"><g transform="translate(71.71699402969818 964.6672081353621) rotate(0 348.6778137303346 3.9848892997752046)"><path d="M-0.01 -0.03 C116.27 1.45, 581.29 6.78, 697.59 7.95 M-1.48 -1.1 C114.67 0.67, 580.31 7.99, 696.76 9.47" stroke="#1e1e1e" stroke-width="2" fill="none"></path></g><g transform="translate(71.71699402969818 964.6672081353621) rotate(0 348.6778137303346 3.9848892997752046)"><path d="M673.15 17.68 C680.08 15.66, 687.01 13.56, 696.76 9.47 M673.15 17.68 C678.19 15.74, 683.94 13.78, 696.76 9.47" stroke="#1e1e1e" stroke-width="2" fill="none"></path></g><g transform="translate(71.71699402969818 964.6672081353621) rotate(0 348.6778137303346 3.9848892997752046)"><path d="M673.39 0.58 C680.12 3.58, 686.98 6.48, 696.76 9.47 M673.39 0.58 C678.49 2.37, 684.19 4.13, 696.76 9.47" stroke="#1e1e1e" stroke-width="2" fill="none"></path></g></g><mask></mask><g stroke-linecap="round"><g transform="translate(91.56758102859567 964.2327272265085) rotate(0 0 -376.49652108801183)"><path d="M-0.23 0.06 C-0.16 -125.43, 0.73 -627.4, 0.95 -752.73 M-1.81 -0.96 C-1.86 -126.84, 0.05 -629.26, 0.5 -754.71" stroke="#1e1e1e" stroke-width="2" fill="none"></path></g><g transform="translate(91.56758102859567 964.2327272265085) rotate(0 0 -376.49652108801183)"><path d="M8.97 -731.18 C6.11 -737.73, 3.54 -745.63, 0.5 -754.71 M8.97 -731.18 C6.48 -741.19, 1.85 -749.77, 0.5 -754.71" stroke="#1e1e1e" stroke-width="2" fill="none"></path></g><g transform="translate(91.56758102859567 964.2327272265085) rotate(0 0 -376.49652108801183)"><path d="M-8.13 -731.25 C-5.1 -737.74, -1.77 -745.61, 0.5 -754.71 M-8.13 -731.25 C-3.93 -741.39, -1.87 -749.95, 0.5 -754.71" stroke="#1e1e1e" stroke-width="2" fill="none"></path></g></g><mask></mask><g transform="translate(179.90754687047553 863.27276626436) rotate(0 365.9798584877881 -323.9132080868929)" stroke="none"><path fill="#1e1e1e" d="M 1.03,-2.41 Q 1.03,-2.41 9.50,1.21 17.96,4.84 22.65,6.33 27.34,7.83 31.59,8.44 35.85,9.05 40.06,9.31 44.27,9.58 48.48,9.70 52.70,9.82 57.25,11.13 61.81,12.44 66.14,14.23 70.47,16.02 75.57,16.67 80.68,17.33 86.50,17.63 92.33,17.94 98.43,18.07 104.54,18.20 109.56,18.26 114.58,18.32 119.13,18.34 123.68,18.37 128.03,18.38 132.38,18.39 135.44,18.39 138.50,18.40 141.01,18.40 143.52,18.40 147.00,18.40 150.49,18.40 153.18,18.40 155.87,18.40 159.43,18.40 163.00,18.40 165.72,18.40 168.44,18.40 170.81,18.40 173.18,18.40 175.47,18.42 177.77,18.44 180.46,19.79 183.14,21.14 186.06,21.51 188.97,21.88 192.68,22.08 196.39,22.29 199.20,22.38 202.01,22.47 205.61,22.51 209.20,22.55 211.95,22.57 214.69,22.58 218.27,22.59 221.86,22.60 224.59,22.60 227.32,22.60 230.90,22.61 234.48,22.61 237.21,22.61 239.94,22.61 242.31,22.61 244.68,22.61 248.11,22.61 251.54,22.61 254.20,22.61 256.87,22.61 259.21,22.61 261.55,22.61 263.76,22.61 265.96,22.61 268.11,22.61 270.26,22.61 274.49,22.61 278.72,22.61 282.93,22.61 287.14,22.61 291.35,22.61 295.56,22.61 298.87,22.61 302.18,22.61 304.80,22.61 307.42,22.61 310.95,22.61 314.48,22.61 317.19,22.61 319.90,22.61 323.46,22.61 327.01,22.61 330.58,21.46 334.14,20.31 338.10,18.63 342.06,16.96 345.95,13.97 349.83,10.97 354.11,8.36 358.39,5.75 361.08,2.50 363.77,-0.74 368.85,-4.81 373.92,-8.89 378.36,-12.92 382.80,-16.94 385.90,-19.87 389.00,-22.80 392.73,-26.45 396.46,-30.10 400.35,-35.15 404.24,-40.20 407.08,-44.73 409.93,-49.25 413.59,-54.86 417.26,-60.47 421.32,-65.39 425.38,-70.30 428.20,-74.65 431.02,-79.00 434.91,-82.37 438.79,-85.74 441.35,-89.26 443.91,-92.78 447.59,-96.89 451.26,-100.99 455.23,-105.14 459.20,-109.29 461.96,-113.31 464.71,-117.32 467.10,-121.42 469.48,-125.53 473.05,-129.90 476.63,-134.27 480.56,-138.53 484.49,-142.78 487.16,-147.92 489.83,-153.07 492.20,-158.88 494.57,-164.70 496.83,-169.68 499.09,-174.67 502.53,-180.52 505.96,-186.37 508.58,-191.18 511.20,-196.00 513.52,-200.46 515.84,-204.92 517.99,-210.33 520.13,-215.74 522.26,-221.68 524.39,-227.62 526.51,-233.77 528.62,-239.92 530.73,-246.17 532.84,-252.41 534.94,-258.69 537.05,-264.97 539.14,-272.42 541.22,-279.86 543.34,-286.72 545.45,-293.57 548.85,-300.30 552.24,-307.04 554.82,-313.35 557.39,-319.66 561.05,-325.03 564.71,-330.41 567.32,-336.04 569.92,-341.67 572.29,-346.57 574.66,-351.48 578.14,-357.29 581.62,-363.10 585.51,-369.18 589.40,-375.26 592.14,-382.44 594.88,-389.62 599.82,-397.82 604.76,-406.01 609.26,-413.06 613.75,-420.10 618.03,-427.86 622.31,-435.61 627.83,-443.87 633.35,-452.12 638.09,-459.22 642.83,-466.32 647.22,-474.08 651.60,-481.85 657.05,-494.73 662.49,-507.62 666.01,-517.90 669.53,-528.18 673.49,-537.51 677.46,-546.84 680.32,-554.35 683.18,-561.87 685.60,-568.69 688.03,-575.51 691.61,-581.10 695.20,-586.69 697.78,-592.41 700.37,-598.13 702.72,-603.08 705.08,-608.02 707.38,-611.48 709.67,-614.94 710.47,-617.27 711.27,-619.61 712.92,-623.24 714.57,-626.87 716.57,-629.77 718.58,-632.67 719.22,-634.72 719.86,-636.76 720.29,-640.79 720.71,-644.82 720.79,-646.97 720.87,-649.12 722.26,-651.77 723.64,-654.41 724.24,-658.17 724.84,-661.92 726.31,-664.51 727.78,-667.10 727.37,-668.90 726.96,-670.70 727.15,-670.95 727.35,-671.20 727.60,-671.39 727.85,-671.58 728.14,-671.71 728.43,-671.84 728.75,-671.89 729.06,-671.94 729.37,-671.92 729.69,-671.90 729.99,-671.80 730.29,-671.70 730.56,-671.54 730.83,-671.37 731.05,-671.14 731.27,-670.92 731.43,-670.64 731.59,-670.37 731.69,-670.07 731.78,-669.77 731.79,-669.45 731.81,-669.13 731.75,-668.82 731.69,-668.51 731.55,-668.22 731.42,-667.94 730.29,-667.32 729.16,-666.69 728.74,-666.77 728.32,-666.84 727.95,-667.05 727.57,-667.25 727.28,-667.56 727.00,-667.87 726.82,-668.26 726.65,-668.65 726.61,-669.07 726.57,-669.49 726.66,-669.91 726.76,-670.32 726.98,-670.68 727.21,-671.05 727.53,-671.32 727.86,-671.59 728.26,-671.74 728.65,-671.89 729.08,-671.91 729.50,-671.93 729.91,-671.81 730.32,-671.69 730.67,-671.45 731.02,-671.21 731.27,-670.86 731.52,-670.52 731.65,-670.12 731.78,-669.71 731.78,-669.29 731.77,-668.87 731.63,-668.46 731.49,-668.06 731.23,-667.73 730.97,-667.39 730.62,-667.16 730.26,-666.92 729.85,-666.82 729.44,-666.71 729.02,-666.73 728.59,-666.76 728.20,-666.92 727.81,-667.09 727.49,-667.37 727.17,-667.64 726.95,-668.01 726.74,-668.38 726.65,-668.79 726.56,-669.21 726.61,-669.63 726.67,-670.05 726.85,-670.44 727.03,-670.82 727.33,-671.13 727.62,-671.43 728.00,-671.63 728.38,-671.82 727.67,-671.26 726.96,-670.70 727.15,-670.95 727.35,-671.20 727.60,-671.39 727.85,-671.58 728.14,-671.71 728.43,-671.84 728.75,-671.89 729.06,-671.94 729.37,-671.92 729.69,-671.90 729.99,-671.80 730.29,-671.70 730.56,-671.54 730.83,-671.37 731.05,-671.14 731.27,-670.92 731.43,-670.64 731.59,-670.37 731.69,-670.07 731.78,-669.77 731.79,-669.45 731.81,-669.13 731.75,-668.82 731.69,-668.51 731.55,-668.22 731.42,-667.94 730.71,-664.54 729.99,-661.15 729.76,-658.92 729.52,-656.70 728.86,-654.25 728.20,-651.81 727.07,-648.14 725.95,-644.47 725.79,-642.20 725.63,-639.94 725.24,-637.51 724.84,-635.08 723.87,-632.40 722.91,-629.72 721.13,-627.20 719.34,-624.68 717.78,-621.26 716.21,-617.83 715.14,-614.94 714.06,-612.05 711.94,-608.90 709.82,-605.76 707.48,-600.86 705.15,-595.96 702.38,-589.90 699.61,-583.84 696.29,-578.78 692.97,-573.71 690.53,-566.86 688.09,-560.00 685.19,-552.39 682.29,-544.79 678.40,-535.63 674.50,-526.48 670.92,-516.02 667.33,-505.57 661.75,-492.42 656.18,-479.28 651.69,-471.34 647.20,-463.40 642.46,-456.30 637.72,-449.20 632.31,-441.13 626.91,-433.07 622.54,-425.17 618.18,-417.28 613.72,-410.28 609.26,-403.29 604.52,-395.50 599.77,-387.72 596.80,-380.08 593.83,-372.45 589.98,-366.42 586.12,-360.40 582.76,-354.79 579.39,-349.19 577.04,-344.32 574.68,-339.45 571.87,-333.45 569.05,-327.45 565.65,-322.55 562.24,-317.65 559.59,-311.15 556.93,-304.66 553.70,-298.34 550.47,-292.01 548.37,-285.23 546.28,-278.45 544.16,-270.87 542.03,-263.30 539.92,-257.02 537.82,-250.73 535.70,-244.47 533.59,-238.21 531.46,-232.03 529.34,-225.84 527.18,-219.82 525.02,-213.80 522.76,-208.15 520.50,-202.49 518.16,-197.99 515.82,-193.49 513.15,-188.59 510.49,-183.70 507.18,-178.10 503.87,-172.49 501.65,-167.60 499.43,-162.71 496.95,-156.66 494.47,-150.62 491.42,-144.93 488.37,-139.25 484.53,-135.09 480.68,-130.94 477.35,-126.91 474.01,-122.88 471.52,-118.60 469.04,-114.33 466.02,-110.00 463.00,-105.67 459.09,-101.58 455.17,-97.48 451.65,-93.57 448.14,-89.66 445.18,-85.71 442.22,-81.76 438.80,-78.92 435.39,-76.08 432.41,-71.52 429.43,-66.95 425.55,-62.27 421.66,-57.59 418.01,-52.02 414.37,-46.45 411.38,-41.72 408.40,-36.99 404.27,-31.67 400.14,-26.35 396.37,-22.66 392.61,-18.97 389.47,-16.01 386.33,-13.05 381.76,-8.92 377.20,-4.79 372.48,-1.05 367.76,2.68 364.47,6.43 361.18,10.19 357.09,12.67 353.00,15.16 348.57,18.47 344.14,21.78 339.91,23.55 335.69,25.33 331.38,26.59 327.08,27.86 323.49,27.86 319.90,27.86 317.19,27.86 314.48,27.86 310.95,27.86 307.42,27.86 304.80,27.86 302.18,27.86 298.87,27.86 295.56,27.86 291.35,27.86 287.14,27.86 282.93,27.86 278.72,27.86 274.49,27.86 270.26,27.86 268.11,27.86 265.96,27.86 263.76,27.86 261.55,27.86 259.21,27.86 256.87,27.86 254.20,27.86 251.54,27.86 248.11,27.86 244.68,27.86 242.31,27.86 239.94,27.86 237.21,27.86 234.48,27.86 230.90,27.86 227.32,27.86 224.58,27.85 221.85,27.85 218.25,27.84 214.66,27.84 211.90,27.82 209.15,27.80 205.49,27.76 201.84,27.72 198.97,27.63 196.10,27.53 192.14,27.30 188.18,27.07 182.81,25.34 177.44,23.61 175.31,23.63 173.18,23.65 170.81,23.65 168.44,23.65 165.72,23.65 163.00,23.65 159.43,23.65 155.87,23.65 153.18,23.65 150.49,23.65 147.00,23.65 143.52,23.65 141.00,23.65 138.49,23.65 135.43,23.64 132.37,23.64 128.01,23.63 123.65,23.62 119.09,23.59 114.52,23.57 109.47,23.51 104.43,23.46 98.24,23.32 92.05,23.19 86.01,22.86 79.97,22.53 74.23,21.71 68.50,20.88 64.40,19.18 60.30,17.48 56.40,16.27 52.51,15.06 48.22,14.94 43.93,14.82 39.51,14.53 35.08,14.25 30.41,13.54 25.75,12.84 20.82,11.25 15.89,9.67 7.43,6.04 -1.03,2.41 -1.30,2.25 -1.58,2.09 -1.81,1.87 -2.03,1.65 -2.20,1.38 -2.37,1.12 -2.47,0.82 -2.57,0.51 -2.59,0.20 -2.62,-0.11 -2.57,-0.42 -2.52,-0.73 -2.39,-1.02 -2.27,-1.31 -2.08,-1.57 -1.89,-1.82 -1.64,-2.02 -1.39,-2.22 -1.11,-2.35 -0.82,-2.49 -0.51,-2.55 -0.20,-2.61 0.11,-2.60 0.42,-2.59 0.73,-2.50 1.03,-2.41 1.03,-2.41 L 1.03,-2.41 Z"></path></g><g transform="translate(179.90754687047553 737.0728150616745) rotate(0 342.8432007672957 -10.516662600223754)" stroke="none"><path fill="#1e1e1e" d="M 0.97,-2.43 Q 0.97,-2.43 7.01,-0.02 13.06,2.39 17.83,3.35 22.60,4.32 25.83,4.74 29.07,5.16 32.79,5.33 36.52,5.51 40.53,5.59 44.54,5.67 47.46,5.70 50.38,5.73 54.03,5.75 57.69,5.76 60.45,5.77 63.22,5.77 65.52,5.79 67.83,5.82 73.30,4.09 78.76,2.36 81.49,2.14 84.22,1.91 86.60,1.81 88.99,1.71 92.44,1.67 95.88,1.63 98.55,1.62 101.22,1.60 103.56,1.59 105.90,1.59 109.32,1.58 112.73,1.58 115.39,1.58 118.05,1.58 120.40,1.58 122.74,1.58 126.15,1.58 129.56,1.58 132.22,1.58 134.88,1.58 137.22,1.58 139.56,1.58 141.74,1.58 143.92,1.58 146.86,0.45 149.80,-0.68 152.62,-1.25 155.45,-1.81 159.16,-2.05 162.87,-2.29 166.83,-2.39 170.79,-2.48 174.54,-3.67 178.29,-4.87 182.66,-5.45 187.03,-6.02 190.07,-6.25 193.11,-6.49 196.86,-6.59 200.61,-6.69 204.61,-6.73 208.62,-6.77 211.53,-6.79 214.43,-6.80 218.09,-6.81 221.75,-6.82 224.51,-6.82 227.28,-6.82 229.66,-6.83 232.04,-6.83 234.27,-6.83 236.49,-6.83 240.15,-7.88 243.81,-8.92 247.55,-9.58 251.29,-10.24 254.00,-10.47 256.72,-10.70 259.10,-10.80 261.48,-10.90 263.70,-10.94 265.93,-10.98 268.08,-10.99 270.24,-11.01 272.37,-11.02 274.49,-11.02 278.71,-11.03 282.93,-11.03 288.30,-11.02 293.67,-11.01 295.79,-12.11 297.92,-13.22 300.50,-13.82 303.08,-14.42 305.43,-14.66 307.78,-14.91 310.00,-15.00 312.21,-15.10 314.37,-15.14 316.52,-15.18 321.52,-16.34 326.52,-17.49 329.34,-18.06 332.15,-18.63 335.82,-18.87 339.49,-19.10 341.75,-20.29 344.02,-21.47 346.64,-22.12 349.27,-22.77 351.64,-23.03 354.01,-23.29 356.24,-23.40 358.47,-23.50 360.63,-23.55 362.78,-23.59 364.91,-23.61 367.04,-23.63 371.26,-23.64 375.48,-23.65 379.69,-23.65 383.90,-23.65 388.02,-23.63 392.14,-23.61 396.12,-25.32 400.11,-27.03 402.38,-27.28 404.66,-27.52 406.84,-27.62 409.02,-27.72 411.16,-27.76 413.30,-27.80 417.52,-27.83 421.75,-27.85 425.96,-27.86 430.17,-27.86 434.38,-27.86 438.59,-27.86 442.79,-27.86 447.00,-27.86 451.21,-27.86 455.41,-27.86 459.62,-27.86 463.83,-27.86 468.03,-27.86 472.24,-27.86 476.45,-27.86 480.65,-27.86 486.07,-27.86 491.48,-27.86 494.10,-27.86 496.72,-27.86 500.25,-27.86 503.78,-27.86 506.49,-27.86 509.20,-27.86 511.56,-27.86 513.92,-27.86 516.14,-27.86 518.35,-27.86 521.71,-27.86 525.07,-27.86 527.71,-27.86 530.34,-27.86 533.88,-27.86 537.42,-27.86 540.14,-27.86 542.85,-27.86 545.21,-27.86 547.58,-27.86 549.79,-27.86 552.00,-27.86 554.15,-27.86 556.30,-27.86 560.54,-27.86 564.77,-27.86 568.98,-27.86 573.20,-27.86 577.40,-27.86 581.61,-27.86 585.82,-27.86 590.03,-27.86 594.23,-27.86 598.44,-27.86 602.65,-27.86 606.85,-27.86 611.06,-27.86 615.27,-27.86 619.47,-27.86 623.68,-27.86 627.89,-27.86 632.09,-27.86 636.30,-27.86 640.51,-27.86 644.71,-27.86 648.92,-27.86 653.13,-27.86 657.33,-27.86 663.94,-27.86 670.56,-27.86 674.56,-29.02 678.56,-30.18 678.98,-30.23 679.40,-30.28 679.82,-30.19 680.23,-30.09 680.60,-29.88 680.96,-29.66 681.24,-29.33 681.51,-29.01 681.67,-28.62 681.83,-28.22 681.85,-27.80 681.88,-27.37 681.76,-26.96 681.65,-26.55 681.41,-26.20 681.17,-25.85 680.83,-25.59 680.50,-25.33 680.09,-25.20 679.69,-25.06 679.27,-25.06 678.84,-25.06 678.44,-25.20 678.04,-25.33 677.70,-25.59 677.36,-25.85 677.12,-26.20 676.88,-26.55 676.77,-26.96 676.65,-27.37 676.68,-27.79 676.70,-28.22 676.86,-28.61 677.01,-29.01 677.29,-29.33 677.56,-29.65 677.93,-29.87 678.29,-30.09 678.71,-30.18 679.12,-30.28 679.54,-30.23 679.97,-30.19 680.35,-30.01 680.74,-29.83 681.05,-29.54 681.35,-29.24 681.55,-28.87 681.75,-28.49 681.82,-28.07 681.89,-27.66 681.82,-27.24 681.75,-26.82 681.56,-26.44 681.36,-26.07 681.05,-25.77 680.74,-25.48 680.35,-25.30 679.97,-25.12 679.97,-25.12 679.97,-25.12 675.29,-23.87 670.61,-22.61 663.97,-22.61 657.33,-22.61 653.13,-22.61 648.92,-22.61 644.71,-22.61 640.51,-22.61 636.30,-22.61 632.09,-22.61 627.89,-22.61 623.68,-22.61 619.47,-22.61 615.27,-22.61 611.06,-22.61 606.85,-22.61 602.65,-22.61 598.44,-22.61 594.23,-22.61 590.03,-22.61 585.82,-22.61 581.61,-22.61 577.40,-22.61 573.20,-22.61 568.98,-22.61 564.77,-22.61 560.54,-22.61 556.30,-22.61 554.15,-22.61 552.00,-22.61 549.79,-22.61 547.58,-22.61 545.21,-22.61 542.85,-22.61 540.14,-22.61 537.42,-22.61 533.88,-22.61 530.34,-22.61 527.71,-22.61 525.07,-22.61 521.71,-22.61 518.35,-22.61 516.14,-22.61 513.92,-22.61 511.56,-22.61 509.20,-22.61 506.49,-22.61 503.78,-22.61 500.25,-22.61 496.72,-22.61 494.10,-22.61 491.48,-22.61 486.07,-22.61 480.65,-22.61 476.45,-22.61 472.24,-22.61 468.03,-22.61 463.83,-22.61 459.62,-22.61 455.41,-22.61 451.21,-22.61 447.00,-22.61 442.79,-22.61 438.59,-22.61 434.38,-22.61 430.17,-22.61 425.97,-22.60 421.77,-22.60 417.58,-22.57 413.39,-22.55 409.30,-22.42 405.20,-22.30 401.50,-21.73 397.80,-21.16 395.14,-19.80 392.49,-18.45 388.19,-18.42 383.90,-18.40 379.69,-18.40 375.49,-18.40 371.28,-18.39 367.08,-18.38 362.90,-18.32 358.71,-18.26 354.59,-17.95 350.46,-17.65 348.36,-17.19 346.27,-16.73 343.11,-15.31 339.96,-13.89 336.56,-13.69 333.16,-13.48 330.74,-13.02 328.32,-12.56 322.47,-11.24 316.62,-9.93 312.46,-9.80 308.30,-9.68 304.20,-9.06 300.09,-8.44 296.98,-7.12 293.87,-5.80 290.51,-5.79 287.14,-5.78 282.93,-5.78 278.73,-5.78 274.50,-5.77 270.28,-5.76 268.15,-5.74 266.02,-5.72 263.85,-5.69 261.69,-5.65 259.42,-5.56 257.15,-5.47 254.62,-5.26 252.09,-5.05 249.19,-4.68 246.29,-4.32 243.63,-2.97 240.97,-1.62 238.73,-1.60 236.49,-1.57 234.27,-1.57 232.05,-1.57 229.66,-1.57 227.28,-1.57 224.52,-1.57 221.76,-1.56 218.11,-1.56 214.47,-1.55 211.57,-1.53 208.67,-1.51 204.71,-1.47 200.74,-1.43 197.13,-1.34 193.51,-1.25 190.60,-1.03 187.69,-0.81 183.75,-0.33 179.81,0.15 175.39,1.45 170.96,2.75 167.08,2.85 163.19,2.94 159.82,3.14 156.45,3.33 154.01,3.79 151.57,4.26 147.80,5.54 144.02,6.82 141.79,6.82 139.56,6.83 137.22,6.83 134.88,6.83 132.22,6.83 129.56,6.83 126.15,6.83 122.74,6.83 120.40,6.83 118.06,6.83 115.40,6.83 112.74,6.83 109.33,6.84 105.92,6.84 103.58,6.85 101.25,6.85 98.60,6.87 95.95,6.89 92.57,6.92 89.20,6.96 86.93,7.05 84.65,7.14 82.10,7.35 79.55,7.56 76.59,7.94 73.63,8.31 70.88,9.65 68.13,10.99 65.67,11.01 63.21,11.03 60.44,11.02 57.67,11.01 53.99,11.00 50.32,10.99 47.38,10.95 44.44,10.92 40.35,10.84 36.27,10.76 32.33,10.56 28.39,10.37 24.96,9.91 21.54,9.46 16.33,8.37 11.12,7.27 5.07,4.85 -0.97,2.43 -1.25,2.28 -1.53,2.13 -1.76,1.92 -1.99,1.70 -2.17,1.44 -2.34,1.17 -2.45,0.88 -2.56,0.58 -2.59,0.26 -2.62,-0.04 -2.58,-0.36 -2.53,-0.67 -2.42,-0.96 -2.30,-1.26 -2.11,-1.51 -1.93,-1.77 -1.69,-1.98 -1.45,-2.18 -1.16,-2.33 -0.88,-2.47 -0.57,-2.54 -0.26,-2.61 0.04,-2.60 0.36,-2.60 0.66,-2.52 0.97,-2.43 0.97,-2.43 L 0.97,-2.43 Z"></path></g><g transform="translate(886.6272736055146 917.9594117855237) rotate(0 8.41333008017898 79.92663576170094)" stroke="none"><path fill="#1e1e1e" d="M 2.54,0.63 Q 2.54,0.63 1.33,5.47 0.13,10.30 -0.35,15.79 -0.83,21.28 -1.04,28.45 -1.25,35.62 -1.35,44.73 -1.44,53.83 -1.48,64.96 -1.52,76.09 -1.53,88.07 -1.55,100.06 -1.56,111.20 -1.56,122.34 -1.57,130.71 -1.57,139.07 -1.58,144.99 -1.60,150.91 2.72,153.31 7.05,155.71 10.72,154.94 14.39,154.17 14.81,154.16 15.24,154.15 15.64,154.28 16.05,154.41 16.39,154.66 16.73,154.92 16.97,155.26 17.22,155.61 17.34,156.02 17.46,156.43 17.44,156.85 17.42,157.28 17.27,157.67 17.12,158.07 16.85,158.40 16.58,158.73 16.22,158.95 15.86,159.18 15.45,159.27 15.03,159.37 14.61,159.33 14.19,159.29 13.80,159.12 13.41,158.95 13.10,158.66 12.78,158.37 12.58,158.00 12.37,157.63 12.30,157.21 12.22,156.79 12.29,156.37 12.35,155.95 12.54,155.57 12.74,155.19 13.04,154.90 13.34,154.60 13.73,154.42 14.11,154.23 14.53,154.18 14.95,154.13 15.37,154.21 15.79,154.30 16.15,154.51 16.52,154.72 16.80,155.04 17.08,155.36 17.24,155.76 17.41,156.15 17.44,156.57 17.47,157.00 17.36,157.41 17.25,157.82 17.02,158.17 16.78,158.53 16.45,158.79 16.12,159.05 15.71,159.20 15.31,159.34 15.31,159.34 15.31,159.34 10.62,160.07 5.93,160.80 1.19,159.26 -3.54,157.73 -5.17,154.43 -6.80,151.13 -6.81,145.10 -6.82,139.07 -6.82,130.71 -6.82,122.34 -6.81,111.20 -6.80,100.05 -6.79,88.06 -6.77,76.07 -6.73,64.92 -6.69,53.78 -6.60,44.62 -6.50,35.47 -6.28,28.13 -6.06,20.80 -5.51,14.92 -4.96,9.04 -3.75,4.20 -2.54,-0.63 -2.43,-0.93 -2.32,-1.22 -2.14,-1.48 -1.96,-1.74 -1.72,-1.95 -1.48,-2.16 -1.20,-2.31 -0.92,-2.45 -0.61,-2.53 -0.30,-2.60 0.00,-2.60 0.32,-2.60 0.63,-2.52 0.93,-2.45 1.21,-2.30 1.49,-2.15 1.73,-1.94 1.97,-1.73 2.15,-1.47 2.32,-1.21 2.44,-0.91 2.55,-0.61 2.58,-0.30 2.62,0.00 2.58,0.32 2.54,0.63 2.54,0.63 L 2.54,0.63 Z"></path></g><g transform="translate(848.7672882447089 989.4727174670455) rotate(0 65.20330812138752 18.929992680402847)" stroke="none"><path fill="#1e1e1e" d="M 2.34,-1.17 Q 2.34,-1.17 4.62,3.52 6.89,8.21 11.04,9.79 15.19,11.38 19.32,12.16 23.45,12.95 29.06,14.56 34.66,16.17 41.80,18.04 48.94,19.91 56.63,20.68 64.32,21.44 73.64,21.78 82.97,22.11 96.93,25.93 110.89,29.75 111.28,29.92 111.66,30.10 111.97,30.39 112.28,30.69 112.48,31.06 112.68,31.44 112.75,31.85 112.82,32.27 112.75,32.69 112.68,33.11 112.49,33.49 112.29,33.86 111.98,34.16 111.67,34.45 111.29,34.63 110.90,34.81 110.48,34.85 110.06,34.90 109.64,34.81 109.23,34.72 108.86,34.50 108.50,34.28 108.22,33.96 107.95,33.64 107.79,33.24 107.63,32.85 107.61,32.42 107.58,32.00 107.70,31.59 107.81,31.18 108.05,30.83 108.28,30.47 108.62,30.22 108.96,29.96 109.36,29.82 109.77,29.69 110.19,29.69 110.62,29.69 111.02,29.82 111.42,29.96 111.76,30.21 112.10,30.47 112.34,30.82 112.58,31.17 112.69,31.58 112.80,31.99 112.78,32.41 112.76,32.84 112.60,33.23 112.45,33.63 112.17,33.95 111.90,34.28 111.53,34.50 111.17,34.72 110.75,34.81 110.34,34.90 109.92,34.86 109.49,34.81 109.49,34.81 109.50,34.81 96.12,31.08 82.74,27.36 73.27,27.01 63.79,26.67 55.71,25.83 47.62,25.00 40.42,23.11 33.21,21.22 27.82,19.66 22.43,18.11 17.76,17.15 13.10,16.19 7.94,13.66 2.78,11.13 0.21,6.15 -2.34,1.17 -2.45,0.87 -2.56,0.57 -2.59,0.26 -2.62,-0.05 -2.58,-0.36 -2.53,-0.67 -2.41,-0.97 -2.30,-1.26 -2.11,-1.52 -1.93,-1.78 -1.69,-1.98 -1.44,-2.19 -1.16,-2.33 -0.88,-2.47 -0.57,-2.54 -0.26,-2.61 0.05,-2.60 0.36,-2.60 0.67,-2.51 0.97,-2.43 1.25,-2.28 1.53,-2.13 1.76,-1.91 2.00,-1.70 2.17,-1.43 2.34,-1.17 2.34,-1.17 L 2.34,-1.17 Z"></path></g><g transform="translate(970.7605744073048 943.199402026061) rotate(0 0.00004999999998744897 0.00005000000000165983)" stroke="none"><path fill="#1e1e1e" d="M 4.25,-4.24 Q 4.25,-4.24 4.81,-3.46 5.38,-2.67 5.67,-1.74 5.95,-0.81 5.92,0.16 5.90,1.13 5.56,2.04 5.23,2.95 4.62,3.71 4.01,4.47 3.19,4.99 2.37,5.52 1.43,5.75 0.48,5.99 -0.48,5.91 -1.45,5.83 -2.34,5.44 -3.23,5.06 -3.96,4.41 -4.68,3.76 -5.16,2.91 -5.64,2.07 -5.82,1.11 -6.00,0.16 -5.87,-0.80 -5.74,-1.76 -5.31,-2.63 -4.88,-3.50 -4.19,-4.19 -3.50,-4.88 -2.63,-5.31 -1.76,-5.74 -0.79,-5.87 0.16,-6.00 1.11,-5.82 2.07,-5.64 2.92,-5.16 3.76,-4.68 4.41,-3.95 5.06,-3.23 5.44,-2.34 5.83,-1.44 5.91,-0.47 5.99,0.48 5.75,1.43 5.52,2.37 4.99,3.19 4.47,4.01 3.71,4.62 2.95,5.23 2.04,5.56 1.13,5.90 0.15,5.92 -0.81,5.95 -1.74,5.66 -2.67,5.38 -3.46,4.81 -4.25,4.24 -4.25,4.24 -4.24,4.25 -4.69,3.67 -5.14,3.10 -5.44,2.44 -5.73,1.78 -5.86,1.07 -5.99,0.36 -5.95,-0.36 -5.91,-1.08 -5.69,-1.77 -5.48,-2.46 -5.10,-3.08 -4.73,-3.70 -4.21,-4.21 -3.70,-4.73 -3.08,-5.10 -2.46,-5.48 -1.77,-5.69 -1.08,-5.91 -0.35,-5.95 0.36,-5.99 1.07,-5.86 1.78,-5.73 2.44,-5.44 3.10,-5.14 3.68,-4.69 4.25,-4.24 4.25,-4.24 L 4.25,-4.24 Z"></path></g><g transform="translate(991.7938996077523 1006.2993776274037) rotate(0 -4.206665040089433 54.686645521163655)" stroke="none"><path fill="#1e1e1e" d="M 2.49,0.83 Q 2.49,0.83 0.07,8.08 -2.34,15.33 -3.31,23.01 -4.28,30.69 -4.71,38.79 -5.14,46.90 -5.32,53.98 -5.51,61.06 -5.59,67.69 -5.67,74.33 -5.70,78.36 -5.73,82.39 -5.75,85.31 -5.76,88.23 -5.77,91.87 -5.78,95.51 -4.62,99.12 -3.47,102.73 -3.42,103.15 -3.36,103.57 -3.44,103.99 -3.52,104.41 -3.73,104.77 -3.94,105.14 -4.26,105.43 -4.58,105.71 -4.97,105.88 -5.36,106.04 -5.78,106.08 -6.21,106.11 -6.62,106.01 -7.03,105.90 -7.39,105.67 -7.75,105.44 -8.01,105.11 -8.28,104.78 -8.42,104.38 -8.57,103.98 -8.58,103.55 -8.59,103.13 -8.46,102.72 -8.33,102.32 -8.09,101.97 -7.84,101.63 -7.49,101.38 -7.14,101.13 -6.74,101.01 -6.33,100.89 -5.91,100.90 -5.48,100.91 -5.08,101.06 -4.69,101.21 -4.36,101.48 -4.02,101.74 -3.80,102.10 -3.57,102.46 -3.47,102.87 -3.37,103.29 -3.40,103.71 -3.44,104.13 -3.61,104.52 -3.78,104.91 -4.06,105.23 -4.35,105.54 -4.72,105.75 -5.09,105.96 -5.51,106.04 -5.92,106.12 -6.34,106.06 -6.77,106.00 -7.15,105.81 -7.53,105.62 -7.82,105.32 -8.12,105.02 -8.31,104.64 -8.50,104.25 -8.50,104.25 -8.50,104.26 -9.76,99.91 -11.02,95.57 -11.02,91.89 -11.01,88.20 -11.00,85.28 -10.99,82.35 -10.95,78.30 -10.92,74.26 -10.84,67.59 -10.76,60.92 -10.57,53.77 -10.39,46.62 -9.94,38.32 -9.49,30.01 -8.41,21.85 -7.33,13.69 -4.91,6.43 -2.49,-0.83 -2.35,-1.11 -2.22,-1.40 -2.02,-1.64 -1.82,-1.89 -1.56,-2.08 -1.31,-2.27 -1.02,-2.39 -0.73,-2.52 -0.41,-2.57 -0.10,-2.62 0.20,-2.59 0.52,-2.57 0.82,-2.47 1.12,-2.37 1.39,-2.20 1.66,-2.03 1.87,-1.80 2.09,-1.57 2.25,-1.30 2.41,-1.03 2.50,-0.72 2.59,-0.42 2.60,-0.10 2.61,0.21 2.55,0.52 2.49,0.83 2.49,0.83 L 2.49,0.83 Z"></path></g><g transform="translate(1028.1785914844488 1046.6940811734485) rotate(0 47.43482981437171 21.08214658416523)" stroke="none"><path fill="#1e1e1e" d="M 2.57,0.51 Q 2.57,0.51 1.56,5.56 0.55,10.61 0.14,16.63 -0.25,22.65 -0.43,28.27 -0.61,33.88 -0.69,38.28 -0.77,42.69 -0.80,45.57 -0.83,48.46 -0.85,50.70 -0.86,52.93 -0.90,53.25 -0.95,53.56 -1.06,53.86 -1.18,54.15 -1.36,54.41 -1.54,54.67 -1.78,54.88 -2.02,55.08 -2.30,55.23 -2.58,55.37 -2.89,55.44 -3.20,55.52 -3.52,55.51 -3.83,55.51 -4.14,55.43 -4.45,55.35 -4.73,55.20 -5.00,55.05 -5.24,54.84 -5.47,54.62 -5.65,54.36 -5.83,54.10 -5.94,53.80 -6.05,53.50 -6.08,53.19 -6.11,52.87 -6.12,49.78 -6.13,46.68 -6.13,40.33 -6.13,33.98 -6.13,26.20 -6.13,18.42 -3.02,9.66 0.07,0.89 3.39,-7.72 6.71,-16.34 11.24,-24.23 15.76,-32.11 19.86,-36.63 23.96,-41.16 28.00,-43.25 32.05,-45.34 34.96,-46.19 37.88,-47.04 41.10,-45.80 44.33,-44.55 45.64,-38.74 46.94,-32.92 48.33,-25.63 49.71,-18.33 50.32,-10.02 50.93,-1.71 51.19,7.87 51.44,17.46 51.55,24.56 51.66,31.65 51.70,36.69 51.75,41.73 51.77,44.88 51.78,48.02 51.75,48.34 51.71,48.65 51.60,48.95 51.49,49.25 51.32,49.51 51.14,49.77 50.90,49.98 50.67,50.20 50.39,50.34 50.11,50.49 49.80,50.57 49.50,50.65 49.18,50.65 48.86,50.66 48.56,50.58 48.25,50.51 47.97,50.37 47.69,50.22 47.45,50.01 47.21,49.81 47.03,49.55 46.84,49.29 46.73,48.99 46.61,48.70 46.57,48.38 46.53,48.07 46.54,41.60 46.55,35.14 46.56,29.08 46.56,23.01 46.57,17.36 46.58,11.70 48.76,6.73 50.94,1.77 55.20,-1.55 59.45,-4.88 62.35,-6.24 65.24,-7.60 67.70,-8.20 70.16,-8.80 74.00,-7.71 77.83,-6.62 80.62,-0.77 83.41,5.08 85.46,14.68 87.50,24.27 88.36,33.45 89.22,42.62 89.58,51.58 89.94,60.54 90.09,67.37 90.24,74.20 89.95,77.54 89.67,80.87 92.39,81.97 95.11,83.08 95.45,83.34 95.78,83.60 96.02,83.95 96.25,84.30 96.36,84.72 96.47,85.13 96.44,85.55 96.42,85.97 96.26,86.37 96.10,86.76 95.82,87.08 95.54,87.40 95.17,87.62 94.81,87.83 94.39,87.92 93.97,88.01 93.55,87.96 93.13,87.91 92.75,87.73 92.36,87.54 92.06,87.25 91.75,86.95 91.56,86.58 91.36,86.20 91.30,85.78 91.23,85.36 91.30,84.94 91.38,84.52 91.58,84.15 91.78,83.77 92.09,83.49 92.41,83.20 92.79,83.02 93.18,82.85 93.60,82.81 94.03,82.76 94.44,82.86 94.85,82.95 95.22,83.18 95.58,83.40 95.85,83.73 96.12,84.05 96.28,84.45 96.43,84.85 96.45,85.27 96.47,85.69 96.35,86.10 96.23,86.51 95.99,86.86 95.75,87.21 95.41,87.46 95.07,87.72 94.66,87.85 94.26,87.98 93.83,87.98 93.41,87.97 93.01,87.83 92.60,87.69 92.61,87.69 92.61,87.69 89.21,85.48 85.81,83.26 85.40,78.79 84.99,74.32 84.84,67.53 84.69,60.75 84.34,51.93 83.98,43.11 83.17,34.23 82.36,25.35 80.46,16.22 78.56,7.09 76.84,2.18 75.12,-2.73 71.27,-2.78 67.42,-2.82 64.99,-1.73 62.56,-0.65 59.04,1.78 55.51,4.21 53.65,8.06 51.79,11.90 51.80,17.46 51.81,23.01 51.81,29.08 51.81,35.14 51.80,41.58 51.78,48.02 51.75,48.34 51.71,48.65 51.60,48.95 51.49,49.25 51.32,49.51 51.14,49.77 50.90,49.98 50.67,50.20 50.39,50.34 50.11,50.49 49.81,50.57 49.50,50.65 49.18,50.65 48.87,50.66 48.56,50.58 48.25,50.51 47.97,50.37 47.69,50.22 47.45,50.01 47.21,49.81 47.03,49.55 46.84,49.29 46.73,48.99 46.61,48.70 46.57,48.38 46.53,48.07 46.51,44.92 46.49,41.78 46.45,36.75 46.40,31.73 46.30,24.67 46.19,17.60 45.94,8.13 45.69,-1.33 45.12,-9.34 44.55,-17.36 43.16,-24.70 41.76,-32.05 40.30,-37.03 38.83,-42.02 36.60,-41.32 34.36,-40.63 31.05,-39.08 27.73,-37.53 24.02,-33.50 20.30,-29.46 15.95,-21.95 11.61,-14.45 8.31,-5.88 5.01,2.69 2.06,10.61 -0.89,18.53 -0.89,26.25 -0.88,33.98 -0.88,40.33 -0.88,46.67 -0.87,49.80 -0.86,52.93 -0.90,53.25 -0.94,53.56 -1.06,53.86 -1.18,54.15 -1.36,54.41 -1.54,54.67 -1.78,54.88 -2.02,55.08 -2.30,55.23 -2.58,55.37 -2.89,55.44 -3.20,55.52 -3.52,55.51 -3.83,55.51 -4.14,55.43 -4.45,55.35 -4.73,55.20 -5.00,55.05 -5.24,54.84 -5.47,54.62 -5.65,54.36 -5.83,54.10 -5.94,53.80 -6.05,53.50 -6.08,53.19 -6.11,52.87 -6.10,50.64 -6.09,48.40 -6.05,45.50 -6.02,42.60 -5.94,38.15 -5.86,33.71 -5.68,28.00 -5.49,22.29 -5.04,15.94 -4.59,9.58 -3.58,4.53 -2.57,-0.51 -2.47,-0.81 -2.37,-1.11 -2.20,-1.38 -2.04,-1.65 -1.81,-1.87 -1.58,-2.09 -1.31,-2.25 -1.03,-2.41 -0.73,-2.50 -0.43,-2.59 -0.11,-2.60 0.20,-2.61 0.51,-2.55 0.82,-2.49 1.10,-2.36 1.39,-2.22 1.64,-2.02 1.88,-1.82 2.07,-1.57 2.26,-1.32 2.39,-1.03 2.52,-0.74 2.57,-0.42 2.62,-0.11 2.59,0.19 2.57,0.51 2.57,0.51 L 2.57,0.51 Z"></path></g><g transform="translate(1165.2125442815227 1085.3446832444179) rotate(0 33.38006542492826 17.56845548680417)" stroke="none"><path fill="#1e1e1e" d="M 1.17,-2.34 Q 1.17,-2.34 5.20,-0.33 9.22,1.68 13.63,2.42 18.04,3.17 21.96,3.52 25.88,3.87 29.56,4.02 33.23,4.17 36.81,4.23 40.39,4.30 42.82,3.05 45.25,1.80 45.57,-2.63 45.89,-7.06 46.08,-12.09 46.28,-17.11 45.62,-20.67 44.96,-24.22 41.99,-25.43 39.02,-26.64 34.90,-27.28 30.79,-27.91 27.37,-28.37 23.95,-28.83 20.94,-25.21 17.94,-21.60 15.61,-15.29 13.29,-8.99 12.27,-0.38 11.25,8.22 10.79,15.94 10.33,23.67 12.08,29.57 13.84,35.47 18.39,40.74 22.95,46.01 28.68,49.17 34.41,52.33 41.69,53.66 48.96,54.99 54.55,57.75 60.15,60.50 60.49,60.75 60.84,61.00 61.08,61.35 61.33,61.69 61.45,62.10 61.57,62.51 61.56,62.93 61.55,63.36 61.40,63.75 61.25,64.15 60.98,64.48 60.71,64.81 60.36,65.04 60.00,65.27 59.58,65.37 59.17,65.47 58.75,65.43 58.32,65.39 57.93,65.22 57.54,65.05 57.23,64.77 56.91,64.48 56.71,64.11 56.50,63.74 56.42,63.32 56.34,62.91 56.40,62.49 56.46,62.07 56.65,61.69 56.84,61.31 57.15,61.01 57.45,60.71 57.83,60.52 58.21,60.33 58.63,60.28 59.05,60.22 59.47,60.31 59.89,60.39 60.26,60.60 60.63,60.81 60.91,61.13 61.19,61.44 61.36,61.84 61.52,62.23 61.55,62.65 61.59,63.07 61.48,63.49 61.38,63.90 61.15,64.26 60.92,64.61 60.58,64.88 60.25,65.14 59.85,65.29 59.45,65.43 59.03,65.44 58.60,65.45 58.20,65.32 57.79,65.20 57.79,65.20 57.79,65.20 52.85,62.66 47.92,60.13 39.91,58.53 31.91,56.93 25.46,53.20 19.02,49.47 13.95,43.27 8.88,37.08 6.98,30.27 5.09,23.45 5.56,15.52 6.04,7.58 7.21,-1.62 8.38,-10.84 11.21,-17.96 14.04,-25.07 18.41,-29.26 22.79,-33.46 27.22,-33.27 31.66,-33.09 36.51,-32.21 41.37,-31.33 45.25,-28.97 49.12,-26.62 50.32,-21.79 51.52,-16.96 51.32,-11.76 51.12,-6.57 50.52,-1.21 49.93,4.13 48.29,6.50 46.65,8.87 43.47,9.21 40.29,9.55 36.65,9.48 33.01,9.42 29.21,9.26 25.41,9.10 21.26,8.72 17.11,8.34 12.02,7.37 6.93,6.39 2.88,4.37 -1.17,2.34 -1.43,2.17 -1.70,1.99 -1.91,1.76 -2.13,1.53 -2.28,1.25 -2.43,0.97 -2.51,0.67 -2.60,0.36 -2.60,0.05 -2.61,-0.26 -2.54,-0.57 -2.47,-0.88 -2.33,-1.16 -2.19,-1.44 -1.98,-1.69 -1.78,-1.93 -1.52,-2.11 -1.26,-2.30 -0.97,-2.41 -0.67,-2.53 -0.36,-2.58 -0.05,-2.62 0.26,-2.59 0.57,-2.56 0.87,-2.45 1.17,-2.34 1.17,-2.34 L 1.17,-2.34 Z"></path></g><g transform="translate(10 51.68021273580575) rotate(0 28.134143596668935 32.3021648702495)" stroke="none"><path fill="#1e1e1e" d="M 2.60,-0.32 Q 2.60,-0.32 3.20,4.46 3.80,9.26 4.06,14.39 4.33,19.51 4.44,25.29 4.55,31.07 4.59,36.51 4.64,41.96 4.66,46.67 4.68,51.38 4.69,55.18 4.69,58.98 4.70,61.79 4.70,64.61 4.70,66.40 4.70,68.20 4.67,68.51 4.63,68.82 4.52,69.12 4.40,69.42 4.22,69.68 4.05,69.94 3.81,70.15 3.57,70.36 3.29,70.51 3.01,70.65 2.70,70.73 2.40,70.81 2.08,70.81 1.76,70.81 1.46,70.73 1.15,70.66 0.87,70.51 0.59,70.36 0.35,70.15 0.11,69.94 -0.06,69.68 -0.24,69.42 -0.35,69.13 -0.46,68.83 -0.50,68.52 -0.54,68.20 -0.54,63.39 -0.54,58.57 -0.54,51.91 -0.54,45.26 -0.54,38.84 -0.54,32.41 -0.54,26.09 -0.54,19.76 -0.54,14.08 -0.54,8.40 -0.50,4.06 -0.46,-0.27 1.00,-2.74 2.46,-5.21 4.72,-6.38 6.99,-7.55 10.69,-7.37 14.39,-7.18 18.42,-5.80 22.46,-4.42 26.53,-2.62 30.60,-0.83 34.03,0.48 37.45,1.80 40.51,2.32 43.57,2.83 47.74,5.00 51.90,7.17 52.24,7.43 52.58,7.69 52.81,8.04 53.05,8.39 53.16,8.81 53.27,9.22 53.25,9.64 53.22,10.06 53.06,10.46 52.90,10.85 52.62,11.17 52.35,11.50 51.98,11.71 51.62,11.93 51.20,12.02 50.79,12.11 50.36,12.06 49.94,12.01 49.56,11.83 49.17,11.65 48.87,11.35 48.56,11.06 48.36,10.68 48.17,10.31 48.10,9.89 48.03,9.47 48.10,9.05 48.18,8.63 48.38,8.25 48.58,7.88 48.89,7.59 49.20,7.30 49.59,7.12 49.97,6.95 50.40,6.90 50.82,6.86 51.23,6.95 51.65,7.05 52.01,7.27 52.37,7.49 52.65,7.82 52.92,8.14 53.07,8.54 53.23,8.93 53.25,9.36 53.27,9.78 53.15,10.19 53.04,10.60 52.80,10.95 52.55,11.30 52.21,11.56 51.87,11.81 51.47,11.94 51.07,12.08 50.64,12.07 50.22,12.07 49.82,11.93 49.41,11.79 49.41,11.80 49.41,11.80 46.00,9.89 42.59,7.97 39.08,7.34 35.58,6.71 32.03,5.34 28.48,3.97 24.59,2.25 20.71,0.53 17.30,-0.71 13.88,-1.96 11.34,-2.33 8.80,-2.70 6.71,-1.23 4.63,0.22 4.67,4.31 4.71,8.40 4.71,14.08 4.71,19.76 4.71,26.09 4.71,32.41 4.71,38.84 4.71,45.26 4.71,51.91 4.71,58.57 4.70,63.38 4.70,68.20 4.67,68.51 4.63,68.82 4.52,69.12 4.40,69.42 4.22,69.68 4.05,69.94 3.81,70.15 3.57,70.36 3.29,70.51 3.01,70.65 2.70,70.73 2.40,70.81 2.08,70.81 1.76,70.81 1.46,70.73 1.15,70.66 0.87,70.51 0.59,70.36 0.35,70.15 0.11,69.94 -0.06,69.68 -0.24,69.42 -0.35,69.13 -0.46,68.83 -0.50,68.52 -0.54,68.20 -0.54,66.41 -0.54,64.61 -0.55,61.80 -0.55,58.99 -0.56,55.20 -0.57,51.40 -0.59,46.70 -0.61,42.00 -0.65,36.58 -0.70,31.16 -0.80,25.47 -0.91,19.78 -1.16,14.84 -1.40,9.91 -2.00,5.11 -2.60,0.32 -2.60,0.00 -2.60,-0.30 -2.53,-0.61 -2.45,-0.92 -2.31,-1.20 -2.16,-1.48 -1.95,-1.72 -1.74,-1.95 -1.48,-2.14 -1.22,-2.32 -0.93,-2.43 -0.63,-2.54 -0.32,-2.58 -0.00,-2.62 0.30,-2.58 0.61,-2.55 0.91,-2.44 1.21,-2.32 1.47,-2.15 1.73,-1.97 1.94,-1.73 2.15,-1.49 2.30,-1.21 2.45,-0.93 2.52,-0.63 2.60,-0.32 2.60,-0.32 L 2.60,-0.32 Z"></path></g><g transform="translate(68.35229783012812 112.11652120272424) rotate(0 12.504063820741777 -7.294037228766058)" stroke="none"><path fill="#1e1e1e" d="M 0,-2.62 Q 0,-2.62 4.19,-2.62 8.38,-2.62 10.69,-2.60 13.00,-2.58 15.71,-5.48 18.42,-8.37 18.89,-11.88 19.36,-15.38 19.63,-18.75 19.89,-22.13 19.42,-25.11 18.95,-28.09 17.69,-30.90 16.42,-33.71 14.37,-35.22 12.33,-36.73 8.20,-37.67 4.07,-38.62 2.81,-35.67 1.56,-32.71 1.28,-28.74 1.00,-24.77 0.87,-20.05 0.74,-15.33 0.68,-10.92 0.62,-6.51 1.16,-2.48 1.70,1.54 3.55,4.05 5.39,6.55 7.26,8.21 9.13,9.86 12.27,12.32 15.40,14.79 17.99,16.50 20.57,18.21 22.98,20.22 25.39,22.23 25.66,22.55 25.94,22.88 26.10,23.27 26.26,23.66 26.29,24.09 26.31,24.51 26.20,24.92 26.09,25.33 25.85,25.69 25.62,26.04 25.28,26.30 24.94,26.56 24.54,26.70 24.14,26.83 23.71,26.84 23.29,26.84 22.89,26.71 22.48,26.57 22.14,26.32 21.80,26.06 21.56,25.71 21.32,25.36 21.21,24.95 21.09,24.54 21.11,24.12 21.13,23.69 21.29,23.30 21.44,22.90 21.71,22.58 21.99,22.25 22.35,22.03 22.71,21.81 23.13,21.72 23.54,21.62 23.96,21.67 24.39,21.71 24.77,21.89 25.16,22.06 25.47,22.35 25.78,22.64 25.98,23.02 26.18,23.39 26.25,23.81 26.33,24.23 26.26,24.65 26.19,25.07 26.00,25.45 25.80,25.82 25.49,26.12 25.19,26.41 24.80,26.59 24.42,26.77 23.99,26.82 23.57,26.87 23.16,26.78 22.74,26.69 22.38,26.47 22.01,26.26 22.01,26.26 22.01,26.26 19.84,24.42 17.66,22.59 15.10,20.89 12.53,19.19 9.06,16.46 5.59,13.74 3.33,11.63 1.06,9.52 -1.16,6.00 -3.40,2.47 -4.01,-2.04 -4.62,-6.57 -4.56,-11.02 -4.50,-15.47 -4.37,-20.32 -4.23,-25.16 -3.87,-29.60 -3.51,-34.03 -2.34,-37.45 -1.16,-40.86 1.43,-42.27 4.02,-43.68 7.23,-43.30 10.43,-42.91 13.00,-41.88 15.58,-40.84 18.32,-38.44 21.06,-36.04 22.60,-32.47 24.14,-28.90 24.63,-25.32 25.13,-21.74 24.84,-18.14 24.54,-14.53 23.71,-10.09 22.87,-5.64 20.90,-2.91 18.93,-0.18 16.11,1.20 13.30,2.58 10.84,2.60 8.38,2.62 4.19,2.62 0,2.62 -0.31,2.58 -0.62,2.55 -0.92,2.43 -1.22,2.32 -1.48,2.14 -1.74,1.96 -1.95,1.72 -2.16,1.49 -2.30,1.21 -2.45,0.93 -2.53,0.62 -2.60,0.31 -2.60,-0.00 -2.60,-0.31 -2.53,-0.62 -2.45,-0.93 -2.30,-1.21 -2.16,-1.49 -1.95,-1.72 -1.74,-1.96 -1.48,-2.14 -1.22,-2.32 -0.92,-2.43 -0.62,-2.55 -0.31,-2.58 0.00,-2.62 0.00,-2.62 L 0,-2.62 Z"></path></g><g transform="translate(118.36855311309512 99.6124573819825) rotate(0 28.134143596668906 16.672085094322313)" stroke="none"><path fill="#1e1e1e" d="M 2.61,-0.20 Q 2.61,-0.20 3.21,7.58 3.81,15.37 4.66,22.22 5.51,29.06 6.46,34.32 7.41,39.58 8.39,42.91 9.36,46.24 10.36,48.81 11.35,51.37 10.54,53.36 9.74,55.35 10.57,52.46 11.40,49.57 12.17,45.35 12.95,41.12 13.26,37.08 13.57,33.05 14.33,29.31 15.09,25.58 15.38,22.98 15.68,20.38 15.81,18.03 15.94,15.68 16.02,15.37 16.09,15.06 16.24,14.78 16.38,14.50 16.59,14.26 16.80,14.02 17.06,13.84 17.32,13.66 17.62,13.54 17.91,13.43 18.22,13.39 18.54,13.35 18.85,13.39 19.17,13.42 19.46,13.53 19.76,13.64 20.02,13.82 20.28,14.00 20.50,14.24 20.71,14.47 20.86,14.75 21.00,15.03 21.08,15.34 21.16,15.64 21.16,15.96 21.16,16.28 22.10,20.52 23.04,24.76 23.75,29.47 24.46,34.17 24.77,38.10 25.09,42.04 25.21,45.49 25.34,48.94 26.14,45.66 26.94,42.39 29.27,35.91 31.61,29.44 34.40,21.91 37.18,14.37 40.16,6.38 43.14,-1.60 46.24,-8.66 49.33,-15.72 49.56,-16.08 49.79,-16.44 50.12,-16.70 50.46,-16.96 50.86,-17.11 51.26,-17.25 51.68,-17.26 52.11,-17.27 52.51,-17.14 52.92,-17.01 53.26,-16.76 53.60,-16.51 53.85,-16.17 54.09,-15.82 54.22,-15.41 54.34,-15.01 54.32,-14.58 54.31,-14.16 54.16,-13.76 54.01,-13.36 53.74,-13.03 53.47,-12.70 53.11,-12.47 52.75,-12.25 52.34,-12.15 51.93,-12.05 51.51,-12.09 51.08,-12.12 50.69,-12.29 50.30,-12.47 49.99,-12.75 49.68,-13.04 49.47,-13.41 49.26,-13.78 49.18,-14.20 49.11,-14.62 49.17,-15.04 49.23,-15.46 49.42,-15.84 49.61,-16.22 49.91,-16.51 50.22,-16.81 50.60,-17.00 50.98,-17.18 51.40,-17.24 51.82,-17.29 52.24,-17.21 52.66,-17.13 53.03,-16.92 53.39,-16.70 53.68,-16.39 53.96,-16.07 54.12,-15.68 54.29,-15.28 54.32,-14.86 54.35,-14.44 54.24,-14.03 54.14,-13.61 54.14,-13.61 54.14,-13.61 51.10,-6.69 48.07,0.22 45.09,8.21 42.11,16.20 39.33,23.71 36.55,31.23 34.25,37.60 31.94,43.98 28.39,49.19 24.83,54.40 22.48,51.84 20.12,49.28 19.98,45.87 19.85,42.45 19.56,38.70 19.26,34.95 18.53,30.02 17.80,25.10 16.87,20.39 15.94,15.68 16.02,15.37 16.09,15.06 16.24,14.78 16.38,14.50 16.59,14.26 16.80,14.02 17.06,13.84 17.32,13.66 17.62,13.54 17.91,13.43 18.22,13.39 18.54,13.35 18.85,13.39 19.17,13.42 19.46,13.53 19.76,13.64 20.02,13.82 20.28,14.00 20.50,14.24 20.71,14.47 20.86,14.75 21.00,15.03 21.08,15.34 21.16,15.64 21.16,15.96 21.16,16.28 21.03,18.63 20.90,20.98 20.56,23.81 20.23,26.64 19.52,30.05 18.80,33.46 18.46,37.76 18.12,42.07 17.36,46.19 16.60,50.31 14.77,54.74 12.94,59.16 9.69,56.21 6.44,53.26 5.38,50.48 4.32,47.71 3.28,44.11 2.24,40.51 1.27,35.11 0.29,29.71 -0.56,22.74 -1.42,15.77 -2.01,7.99 -2.61,0.20 -2.60,-0.11 -2.59,-0.43 -2.50,-0.73 -2.41,-1.03 -2.25,-1.31 -2.09,-1.58 -1.87,-1.81 -1.65,-2.04 -1.38,-2.20 -1.11,-2.37 -0.81,-2.47 -0.51,-2.57 -0.19,-2.59 0.11,-2.62 0.42,-2.57 0.74,-2.52 1.03,-2.39 1.32,-2.26 1.57,-2.07 1.82,-1.88 2.02,-1.64 2.22,-1.39 2.36,-1.10 2.49,-0.82 2.55,-0.51 2.61,-0.20 2.61,-0.20 L 2.61,-0.20 Z"></path></g><g transform="translate(191.30892540075524 93.36042547161162) rotate(0 -4.168021273580564 30.218154233459188)" stroke="none"><path fill="#1e1e1e" d="M 0,2.62 Q 0,2.62 -5.32,2.61 -10.65,2.59 -13.55,4.21 -16.45,5.84 -18.71,9.22 -20.97,12.60 -22.54,17.46 -24.11,22.32 -24.79,27.30 -25.48,32.27 -25.78,36.78 -26.09,41.29 -26.22,45.01 -26.35,48.72 -26.41,50.90 -26.46,53.09 -26.25,50.92 -26.03,48.76 -24.09,44.13 -22.14,39.49 -20.07,34.45 -18.00,29.40 -16.55,24.95 -15.10,20.49 -13.84,17.27 -12.57,14.04 -11.46,12.73 -10.35,11.42 -10.20,11.14 -10.05,10.87 -9.84,10.63 -9.62,10.40 -9.36,10.22 -9.10,10.04 -8.80,9.93 -8.50,9.82 -8.19,9.79 -7.87,9.76 -7.56,9.80 -7.25,9.84 -6.95,9.95 -6.66,10.07 -6.40,10.25 -6.14,10.44 -5.93,10.68 -5.73,10.92 -5.58,11.20 -5.44,11.48 -5.37,11.79 -5.29,12.10 -5.30,12.41 -5.30,12.73 -5.38,13.04 -5.46,13.34 -4.69,18.40 -3.92,23.45 -3.84,28.10 -3.75,32.74 -3.71,37.10 -3.68,41.47 -3.08,44.91 -2.48,48.35 -2.24,51.10 -2.01,53.85 0.77,55.33 3.56,56.82 6.11,57.08 8.66,57.35 10.97,57.48 13.29,57.61 15.46,57.66 17.63,57.72 18.05,57.80 18.47,57.88 18.84,58.09 19.21,58.30 19.49,58.61 19.78,58.93 19.94,59.32 20.11,59.71 20.15,60.13 20.18,60.56 20.08,60.97 19.98,61.38 19.75,61.74 19.52,62.10 19.19,62.36 18.86,62.63 18.46,62.78 18.06,62.93 17.64,62.94 17.21,62.95 16.81,62.82 16.40,62.70 16.05,62.45 15.71,62.21 15.46,61.86 15.21,61.52 15.09,61.11 14.96,60.70 14.97,60.28 14.98,59.85 15.13,59.45 15.28,59.06 15.54,58.72 15.81,58.39 16.17,58.16 16.52,57.93 16.94,57.83 17.35,57.73 17.77,57.76 18.20,57.80 18.59,57.96 18.98,58.13 19.29,58.42 19.61,58.70 19.82,59.07 20.03,59.44 20.11,59.86 20.19,60.27 20.13,60.69 20.08,61.12 19.89,61.50 19.70,61.88 19.40,62.18 19.10,62.48 18.72,62.67 18.34,62.86 17.92,62.91 17.49,62.97 17.49,62.97 17.50,62.97 15.24,62.91 12.99,62.85 10.53,62.71 8.07,62.57 5.02,62.20 1.98,61.83 -0.90,60.69 -3.79,59.56 -5.44,57.14 -7.09,54.72 -7.38,51.97 -7.66,49.22 -8.29,45.37 -8.93,41.52 -8.96,37.18 -9.00,32.84 -9.08,28.29 -9.17,23.73 -9.33,20.21 -9.50,16.70 -9.92,14.06 -10.35,11.42 -10.20,11.14 -10.05,10.87 -9.84,10.63 -9.62,10.40 -9.36,10.22 -9.10,10.04 -8.80,9.93 -8.50,9.82 -8.19,9.79 -7.87,9.76 -7.56,9.80 -7.25,9.84 -6.95,9.95 -6.66,10.07 -6.40,10.25 -6.14,10.44 -5.93,10.68 -5.73,10.92 -5.58,11.20 -5.44,11.48 -5.37,11.79 -5.29,12.10 -5.30,12.41 -5.30,12.73 -5.38,13.04 -5.46,13.34 -6.59,14.69 -7.73,16.04 -8.92,19.08 -10.11,22.12 -11.62,26.76 -13.14,31.40 -15.22,36.47 -17.31,41.55 -19.50,46.64 -21.69,51.72 -25.62,55.11 -29.54,58.51 -30.63,55.73 -31.71,52.95 -31.66,50.74 -31.60,48.53 -31.46,44.74 -31.33,40.94 -31.00,36.23 -30.68,31.53 -29.89,26.10 -29.09,20.67 -27.19,15.14 -25.28,9.61 -22.17,5.48 -19.07,1.34 -14.99,-0.62 -10.91,-2.59 -5.45,-2.61 0,-2.62 0.31,-2.58 0.62,-2.55 0.92,-2.43 1.22,-2.32 1.48,-2.14 1.74,-1.96 1.95,-1.72 2.16,-1.49 2.30,-1.21 2.45,-0.93 2.53,-0.62 2.60,-0.31 2.60,0.00 2.60,0.31 2.53,0.62 2.45,0.93 2.30,1.21 2.16,1.49 1.95,1.72 1.74,1.96 1.48,2.14 1.22,2.32 0.92,2.43 0.62,2.55 0.31,2.58 -0.00,2.62 -0.00,2.62 L 0,2.62 Z"></path></g><g transform="translate(222.56908495260961 116.28454247630475) rotate(0 20.840106367902877 13.546069139136932)" stroke="none"><path fill="#1e1e1e" d="M 2.61,0.29 Q 2.61,0.29 2.01,5.67 1.41,11.06 1.76,15.51 2.11,19.96 2.25,23.80 2.40,27.63 3.04,30.84 3.68,34.05 3.97,36.80 4.27,39.54 5.20,42.24 6.14,44.95 6.22,45.25 6.31,45.56 6.32,45.87 6.33,46.19 6.26,46.50 6.20,46.81 6.06,47.09 5.92,47.38 5.72,47.62 5.52,47.87 5.26,48.06 5.01,48.24 4.71,48.37 4.42,48.49 4.11,48.54 3.80,48.58 3.48,48.56 3.17,48.53 2.87,48.43 2.57,48.32 2.30,48.15 2.03,47.98 1.82,47.75 1.60,47.52 1.44,47.24 1.29,46.97 1.32,43.38 1.35,39.79 1.40,34.35 1.45,28.91 1.48,23.00 1.50,17.08 1.52,10.35 1.53,3.62 3.40,-2.03 5.27,-7.68 7.36,-11.36 9.45,-15.04 12.40,-17.46 15.36,-19.88 18.01,-20.94 20.66,-22.00 23.10,-22.44 25.55,-22.88 28.69,-22.43 31.83,-21.99 35.64,-20.54 39.46,-19.08 39.82,-18.86 40.19,-18.65 40.47,-18.32 40.74,-18.00 40.91,-17.61 41.07,-17.22 41.09,-16.79 41.12,-16.37 41.01,-15.96 40.90,-15.55 40.66,-15.19 40.42,-14.84 40.09,-14.58 39.75,-14.32 39.35,-14.18 38.95,-14.04 38.52,-14.04 38.10,-14.04 37.69,-14.17 37.29,-14.30 36.95,-14.56 36.61,-14.81 36.37,-15.16 36.13,-15.51 36.01,-15.92 35.90,-16.33 35.92,-16.75 35.93,-17.18 36.09,-17.57 36.24,-17.97 36.52,-18.30 36.79,-18.62 37.15,-18.84 37.51,-19.06 37.93,-19.16 38.34,-19.25 38.77,-19.21 39.19,-19.17 39.58,-18.99 39.96,-18.82 40.27,-18.53 40.58,-18.24 40.79,-17.86 40.99,-17.49 41.06,-17.07 41.13,-16.65 41.07,-16.23 41.00,-15.81 40.80,-15.43 40.61,-15.06 40.30,-14.76 39.99,-14.47 39.61,-14.29 39.23,-14.11 38.80,-14.06 38.38,-14.01 37.97,-14.10 37.55,-14.18 37.55,-14.18 37.55,-14.18 34.26,-15.50 30.96,-16.81 28.65,-17.26 26.34,-17.70 22.43,-16.70 18.53,-15.71 16.22,-14.01 13.91,-12.32 12.07,-9.14 10.23,-5.96 8.50,-1.12 6.77,3.71 6.76,10.41 6.75,17.10 6.73,23.03 6.71,28.96 6.65,34.49 6.60,40.01 6.37,42.48 6.14,44.95 6.22,45.25 6.31,45.56 6.32,45.87 6.33,46.19 6.26,46.50 6.20,46.81 6.06,47.09 5.92,47.38 5.72,47.62 5.52,47.87 5.26,48.06 5.01,48.24 4.71,48.37 4.42,48.49 4.11,48.54 3.80,48.58 3.48,48.56 3.17,48.53 2.87,48.43 2.57,48.32 2.30,48.15 2.03,47.98 1.82,47.75 1.60,47.52 1.44,47.24 1.29,46.97 0.98,45.63 0.67,44.30 -0.12,42.23 -0.93,40.15 -1.20,37.60 -1.47,35.05 -2.15,31.45 -2.84,27.84 -2.98,24.10 -3.12,20.35 -3.46,15.42 -3.80,10.50 -3.20,5.10 -2.61,-0.29 -2.53,-0.59 -2.46,-0.90 -2.32,-1.18 -2.17,-1.47 -1.96,-1.70 -1.76,-1.94 -1.50,-2.13 -1.24,-2.31 -0.94,-2.42 -0.65,-2.54 -0.34,-2.58 -0.02,-2.62 0.28,-2.59 0.60,-2.55 0.89,-2.44 1.19,-2.33 1.45,-2.16 1.72,-1.98 1.93,-1.74 2.14,-1.51 2.29,-1.23 2.44,-0.95 2.52,-0.64 2.60,-0.34 2.60,-0.02 2.61,0.29 2.61,0.29 L 2.61,0.29 Z"></path></g><g transform="translate(295.50945724026974 116.28454247630475) rotate(0 -5.210026591975719 -18.756095731112566)" stroke="none"><path fill="#1e1e1e" d="M 0,2.62 Q 0,2.62 -5.38,2.62 -10.76,2.62 -15.13,3.77 -19.49,4.93 -23.59,7.12 -27.70,9.32 -30.48,11.89 -33.27,14.46 -34.91,17.71 -36.54,20.95 -37.90,24.16 -39.26,27.36 -39.77,30.30 -40.29,33.25 -40.53,35.68 -40.77,38.11 -39.30,40.92 -37.83,43.73 -33.56,42.75 -29.30,41.76 -25.95,34.99 -22.59,28.22 -19.25,17.58 -15.91,6.93 -13.90,-8.83 -11.89,-24.61 -11.03,-40.90 -10.16,-57.19 -9.19,-68.98 -8.22,-80.78 -7.81,-87.54 -7.39,-94.31 -7.22,-97.80 -7.04,-101.28 -6.99,-101.60 -6.93,-101.91 -6.80,-102.20 -6.67,-102.48 -6.47,-102.73 -6.28,-102.98 -6.03,-103.18 -5.78,-103.37 -5.49,-103.50 -5.20,-103.63 -4.89,-103.69 -4.58,-103.75 -4.26,-103.73 -3.95,-103.71 -3.65,-103.61 -3.34,-103.52 -3.07,-103.36 -2.80,-103.19 -2.58,-102.97 -2.35,-102.74 -2.19,-102.47 -2.03,-102.20 -1.93,-101.90 -1.84,-101.60 -1.82,-101.28 -1.80,-100.97 -3.17,-98.76 -4.54,-96.56 -5.45,-93.85 -6.35,-91.14 -8.04,-87.35 -9.74,-83.57 -10.98,-79.18 -12.21,-74.80 -12.72,-69.49 -13.23,-64.18 -13.46,-58.31 -13.69,-52.45 -13.79,-44.56 -13.89,-36.68 -13.94,-26.14 -13.98,-15.60 -11.04,-3.03 -8.09,9.54 -3.31,20.16 1.46,30.79 6.99,38.79 12.53,46.79 17.72,51.24 22.91,55.68 26.43,58.90 29.95,62.11 30.21,62.44 30.47,62.78 30.62,63.18 30.76,63.58 30.77,64.00 30.77,64.43 30.65,64.83 30.52,65.24 30.27,65.58 30.01,65.92 29.67,66.17 29.32,66.41 28.91,66.53 28.51,66.66 28.08,66.64 27.66,66.63 27.26,66.48 26.86,66.33 26.53,66.06 26.20,65.79 25.98,65.43 25.75,65.07 25.65,64.65 25.55,64.24 25.59,63.82 25.63,63.39 25.80,63.00 25.97,62.62 26.26,62.30 26.55,61.99 26.92,61.78 27.29,61.58 27.71,61.50 28.13,61.42 28.55,61.49 28.97,61.55 29.35,61.74 29.73,61.93 30.02,62.23 30.32,62.54 30.51,62.92 30.69,63.30 30.75,63.72 30.80,64.15 30.72,64.56 30.63,64.98 30.42,65.35 30.21,65.71 29.89,66.00 29.57,66.28 29.18,66.44 28.78,66.61 28.36,66.64 27.94,66.67 27.53,66.56 27.11,66.45 26.76,66.22 26.40,65.99 26.40,65.99 26.40,65.99 22.93,62.82 19.46,59.65 13.85,54.73 8.23,49.80 2.45,41.37 -3.32,32.95 -8.26,21.84 -13.20,10.74 -16.22,-2.42 -19.23,-15.59 -19.19,-26.17 -19.15,-36.74 -19.04,-44.70 -18.94,-52.65 -18.70,-58.68 -18.46,-64.71 -17.87,-70.47 -17.27,-76.23 -15.90,-80.97 -14.53,-85.71 -12.92,-89.30 -11.30,-92.89 -9.17,-97.09 -7.04,-101.28 -6.99,-101.60 -6.93,-101.91 -6.80,-102.20 -6.67,-102.48 -6.47,-102.73 -6.28,-102.98 -6.03,-103.18 -5.78,-103.37 -5.49,-103.50 -5.20,-103.63 -4.89,-103.69 -4.58,-103.75 -4.26,-103.73 -3.95,-103.71 -3.65,-103.61 -3.34,-103.52 -3.07,-103.36 -2.80,-103.19 -2.58,-102.97 -2.35,-102.74 -2.19,-102.47 -2.03,-102.20 -1.93,-101.90 -1.84,-101.60 -1.82,-101.28 -1.80,-100.97 -1.98,-97.48 -2.15,-93.99 -2.57,-87.17 -2.98,-80.35 -3.95,-68.63 -4.92,-56.91 -5.80,-40.42 -6.68,-23.94 -8.79,-7.71 -10.90,8.50 -14.42,19.59 -17.95,30.67 -22.29,38.37 -26.64,46.07 -30.87,47.75 -35.10,49.44 -38.22,48.46 -41.35,47.48 -43.12,45.33 -44.89,43.17 -45.44,40.42 -46.00,37.67 -45.73,34.98 -45.46,32.29 -44.78,28.81 -44.10,25.34 -42.64,21.91 -41.18,18.48 -39.02,14.57 -36.86,10.66 -33.52,7.67 -30.17,4.69 -25.50,2.27 -20.82,-0.14 -15.81,-1.38 -10.80,-2.62 -5.40,-2.62 0,-2.62 0.31,-2.58 0.62,-2.55 0.92,-2.43 1.22,-2.32 1.48,-2.14 1.74,-1.96 1.95,-1.72 2.16,-1.49 2.30,-1.21 2.45,-0.93 2.53,-0.62 2.60,-0.31 2.60,0.00 2.60,0.31 2.53,0.62 2.45,0.93 2.30,1.21 2.16,1.49 1.95,1.72 1.74,1.96 1.48,2.14 1.22,2.32 0.92,2.43 0.62,2.55 0.31,2.58 -0.00,2.62 -0.00,2.62 L 0,2.62 Z"></path></g><g transform="translate(907.1931309926628 229.019748737633) rotate(0 -38.76587690693907 66.13002531183724)" stroke="none"><path fill="#1e1e1e" d="M 2.60,0.32 Q 2.60,0.32 1.29,10.81 -0.01,21.30 -0.56,29.62 -1.11,37.93 -1.35,45.38 -1.58,52.83 -0.39,59.70 0.80,66.56 1.33,74.97 1.86,83.38 3.37,91.99 4.88,100.61 5.55,108.38 6.21,116.15 7.76,121.80 9.31,127.44 9.95,131.26 10.60,135.07 10.94,135.49 11.28,135.90 11.30,136.22 11.31,136.54 11.25,136.85 11.20,137.16 11.06,137.45 10.93,137.73 10.74,137.98 10.54,138.23 10.29,138.42 10.04,138.62 9.75,138.75 9.46,138.87 9.15,138.93 8.84,138.98 8.52,138.96 8.20,138.94 7.90,138.85 7.60,138.75 7.33,138.58 7.06,138.42 6.84,138.19 6.62,137.97 6.45,137.70 6.29,137.42 6.20,137.12 6.11,136.82 6.21,132.75 6.31,128.67 6.36,121.84 6.41,115.01 6.44,106.86 6.46,98.70 6.47,91.30 6.48,83.90 6.48,75.52 6.48,67.13 6.49,59.63 6.49,52.13 6.49,45.01 6.49,37.89 6.49,32.24 6.49,26.59 6.49,20.25 6.49,13.92 6.49,8.60 6.49,3.29 6.57,-0.06 6.65,-3.42 4.43,-4.55 2.21,-5.67 -0.46,-4.67 -3.15,-3.67 -6.72,0.38 -10.29,4.44 -15.98,10.26 -21.67,16.07 -28.01,22.47 -34.36,28.88 -40.99,35.53 -47.62,42.18 -55.62,51.50 -63.62,60.81 -69.69,67.45 -75.77,74.09 -76.10,74.35 -76.44,74.62 -76.84,74.76 -77.24,74.90 -77.66,74.91 -78.09,74.91 -78.49,74.79 -78.90,74.66 -79.24,74.41 -79.58,74.15 -79.83,73.81 -80.07,73.46 -80.19,73.05 -80.31,72.64 -80.30,72.22 -80.28,71.80 -80.13,71.40 -79.98,71.00 -79.71,70.67 -79.44,70.34 -79.08,70.12 -78.72,69.89 -78.31,69.79 -77.89,69.70 -77.47,69.73 -77.05,69.77 -76.66,69.95 -76.27,70.12 -75.96,70.40 -75.64,70.69 -75.44,71.06 -75.23,71.43 -75.16,71.85 -75.08,72.27 -75.14,72.69 -75.20,73.11 -75.40,73.49 -75.59,73.87 -75.89,74.17 -76.20,74.46 -76.58,74.65 -76.96,74.83 -77.38,74.89 -77.80,74.94 -78.22,74.86 -78.64,74.77 -79.00,74.56 -79.37,74.35 -79.65,74.03 -79.93,73.71 -80.10,73.32 -80.26,72.92 -80.29,72.50 -80.32,72.08 -80.22,71.66 -80.11,71.25 -79.88,70.90 -79.64,70.54 -79.64,70.54 -79.64,70.54 -73.62,63.96 -67.60,57.38 -59.47,47.93 -51.35,38.48 -44.72,31.83 -38.09,25.18 -31.76,18.79 -25.42,12.40 -19.78,6.63 -14.14,0.86 -9.56,-3.82 -4.99,-8.50 -0.83,-9.58 3.31,-10.65 5.82,-9.67 8.33,-8.69 9.96,-6.48 11.59,-4.26 11.67,-0.48 11.74,3.29 11.74,8.61 11.74,13.92 11.74,20.25 11.74,26.59 11.74,32.24 11.74,37.89 11.74,45.01 11.74,52.13 11.74,59.63 11.74,67.13 11.73,75.52 11.73,83.91 11.72,91.32 11.71,98.72 11.69,106.89 11.67,115.05 11.61,121.95 11.56,128.84 11.42,132.37 11.28,135.90 11.30,136.22 11.31,136.54 11.25,136.85 11.20,137.16 11.06,137.45 10.93,137.73 10.74,137.98 10.54,138.23 10.29,138.42 10.04,138.62 9.75,138.75 9.46,138.87 9.15,138.93 8.84,138.98 8.52,138.96 8.20,138.94 7.90,138.85 7.60,138.75 7.33,138.58 7.06,138.42 6.84,138.19 6.62,137.97 6.45,137.70 6.29,137.43 6.20,137.12 6.11,136.82 5.87,136.62 5.64,136.42 4.94,132.62 4.23,128.81 2.61,122.71 0.98,116.61 0.34,109.06 -0.28,101.51 -1.83,92.61 -3.38,83.71 -3.88,75.57 -4.37,67.44 -5.60,60.06 -6.83,52.69 -6.59,45.13 -6.35,37.58 -5.79,29.12 -5.22,20.65 -3.91,10.16 -2.60,-0.32 -2.52,-0.63 -2.45,-0.94 -2.30,-1.21 -2.15,-1.49 -1.94,-1.73 -1.73,-1.97 -1.47,-2.15 -1.21,-2.33 -0.91,-2.44 -0.61,-2.55 -0.30,-2.58 0.00,-2.62 0.32,-2.58 0.63,-2.54 0.93,-2.43 1.22,-2.32 1.48,-2.14 1.74,-1.95 1.95,-1.72 2.16,-1.48 2.31,-1.20 2.45,-0.92 2.53,-0.61 2.60,-0.30 2.60,0.00 2.60,0.32 2.60,0.32 L 2.60,0.32 Z"></path></g><g transform="translate(863.053732876849 716.008022580989) rotate(0 -23.018016024080396 -26.55924925855436)" stroke="none"><path fill="#1e1e1e" d="M -1.74,1.96 Q -1.74,1.96 -6.33,-2.11 -10.91,-6.19 -14.57,-11.18 -18.23,-16.17 -22.22,-21.21 -26.21,-26.26 -29.53,-31.60 -32.86,-36.94 -35.31,-41.80 -37.75,-46.66 -40.20,-50.04 -42.64,-53.42 -44.32,-56.61 -46.01,-59.81 -46.68,-62.11 -47.36,-64.42 -47.47,-64.71 -47.58,-65.01 -47.62,-65.32 -47.66,-65.64 -47.62,-65.95 -47.58,-66.27 -47.47,-66.56 -47.36,-66.86 -47.18,-67.12 -47.00,-67.38 -46.76,-67.59 -46.52,-67.80 -46.24,-67.95 -45.96,-68.09 -45.65,-68.17 -45.35,-68.24 -45.03,-68.24 -44.71,-68.24 -44.41,-68.17 -44.10,-68.09 -43.82,-67.94 -43.54,-67.80 -43.30,-67.59 -43.06,-67.38 -42.88,-67.12 -42.70,-66.85 -37.61,-63.05 -32.51,-59.24 -26.23,-53.47 -19.95,-47.70 -14.19,-42.16 -8.43,-36.61 -4.40,-32.16 -0.37,-27.71 2.43,-23.68 5.24,-19.65 6.47,-17.35 7.70,-15.05 7.49,-11.51 7.28,-7.98 5.06,-7.30 2.84,-6.63 -0.55,-6.51 -3.96,-6.39 -8.27,-5.84 -12.58,-5.29 -17.79,-3.58 -23.00,-1.87 -27.71,0.33 -32.41,2.55 -35.82,4.93 -39.22,7.32 -41.68,9.33 -44.15,11.35 -46.20,13.21 -48.25,15.07 -48.60,15.30 -48.96,15.53 -49.37,15.63 -49.78,15.74 -50.21,15.70 -50.63,15.67 -51.02,15.51 -51.41,15.34 -51.73,15.06 -52.05,14.77 -52.26,14.41 -52.47,14.04 -52.55,13.62 -52.63,13.20 -52.58,12.78 -52.52,12.36 -52.34,11.98 -52.15,11.60 -51.85,11.30 -51.55,10.99 -51.17,10.80 -50.79,10.61 -50.37,10.55 -49.95,10.49 -49.53,10.57 -49.11,10.65 -48.74,10.86 -48.37,11.07 -48.09,11.38 -47.80,11.70 -47.63,12.08 -47.46,12.47 -47.43,12.90 -47.39,13.32 -47.49,13.73 -47.59,14.15 -47.82,14.51 -48.05,14.87 -48.38,15.13 -48.71,15.40 -49.10,15.55 -49.50,15.70 -49.93,15.71 -50.35,15.72 -50.76,15.60 -51.17,15.48 -51.51,15.23 -51.86,14.99 -52.11,14.64 -52.36,14.30 -52.48,13.89 -52.61,13.49 -52.60,13.06 -52.59,12.64 -52.45,12.24 -52.30,11.84 -52.04,11.50 -51.77,11.17 -51.77,11.17 -51.77,11.17 -49.62,9.23 -47.47,7.28 -44.84,5.14 -42.22,3.00 -38.44,0.40 -34.65,-2.19 -29.64,-4.53 -24.62,-6.87 -18.94,-8.69 -13.25,-10.50 -8.69,-11.07 -4.14,-11.64 -0.53,-12.12 3.06,-12.59 1.99,-14.63 0.92,-16.66 -1.67,-20.43 -4.27,-24.19 -8.17,-28.51 -12.07,-32.83 -17.79,-38.33 -23.51,-43.83 -29.87,-49.68 -36.23,-55.53 -39.67,-59.34 -43.11,-63.15 -45.24,-63.78 -47.36,-64.42 -47.47,-64.71 -47.58,-65.01 -47.62,-65.32 -47.66,-65.64 -47.62,-65.95 -47.58,-66.27 -47.47,-66.56 -47.36,-66.86 -47.18,-67.12 -47.00,-67.38 -46.76,-67.59 -46.52,-67.80 -46.24,-67.95 -45.96,-68.09 -45.65,-68.17 -45.35,-68.24 -45.03,-68.24 -44.71,-68.24 -44.41,-68.17 -44.10,-68.09 -43.82,-67.94 -43.54,-67.80 -43.30,-67.59 -43.06,-67.38 -42.88,-67.12 -42.71,-66.86 -42.03,-64.54 -41.35,-62.23 -39.86,-59.35 -38.36,-56.47 -35.71,-52.75 -33.07,-49.03 -30.73,-44.37 -28.39,-39.70 -25.24,-34.61 -22.09,-29.51 -18.03,-24.38 -13.98,-19.25 -10.69,-14.67 -7.40,-10.09 -2.83,-6.03 1.74,-1.96 1.95,-1.72 2.16,-1.48 2.31,-1.20 2.45,-0.92 2.53,-0.61 2.60,-0.31 2.60,0.00 2.60,0.32 2.53,0.62 2.45,0.93 2.30,1.21 2.15,1.49 1.94,1.73 1.73,1.96 1.47,2.14 1.21,2.32 0.92,2.43 0.62,2.55 0.30,2.58 -0.00,2.62 -0.31,2.58 -0.63,2.54 -0.92,2.43 -1.22,2.32 -1.48,2.14 -1.74,1.96 -1.74,1.96 L -1.74,1.96 Z"></path></g></svg>